<?xml version="1.0" standalone="no"?>
<!DOCTYPE svg PUBLIC "-//W3C//DTD SVG 20010904//EN"
 "http://www.w3.org/TR/2001/REC-SVG-20010904/DTD/svg10.dtd">
<svg version="1.0" xmlns="http://www.w3.org/2000/svg"
 width="500.000000pt" height="161.000000pt" viewBox="0 0 500.000000 161.000000"
 preserveAspectRatio="xMidYMid meet">
<metadata>

</metadata>
<g transform="translate(0.000000,161.000000) scale(0.100000,-0.100000)"
fill="#000000" stroke="none">
<path d="M3776 1410 c-8 -40 -93 -126 -134 -135 -40 -8 -41 -21 -2 -29 40 -8
126 -93 135 -134 8 -40 21 -41 30 -2 9 40 98 129 136 137 37 7 37 19 2 26 -42
8 -109 71 -129 122 -11 25 -22 45 -25 45 -4 0 -9 -14 -13 -30z"/>
<path d="M1481 1129 c-95 -19 -184 -98 -222 -198 -44 -116 -8 -260 84 -335 74
-60 129 -80 232 -80 85 -1 186 21 200 43 2 5 -3 26 -11 49 l-16 40 -37 -16
c-24 -10 -67 -16 -128 -16 -86 -1 -94 1 -135 29 -122 86 -127 282 -9 361 86
56 225 35 256 -39 16 -38 31 -47 76 -47 l30 0 -3 103 -3 102 -30 -1 c-53 -3
-55 -4 -55 -24 l0 -21 -27 21 c-16 11 -52 24 -82 30 -60 11 -59 11 -120 -1z"/>
<path d="M2263 1130 c-98 -20 -177 -82 -223 -172 -36 -73 -41 -162 -13 -243
25 -71 111 -156 183 -181 71 -24 169 -24 240 0 73 25 159 110 183 180 23 68
22 163 -3 230 -48 128 -222 216 -367 186z m163 -109 c99 -45 143 -182 93 -291
-26 -57 -44 -77 -94 -103 -94 -48 -213 -15 -269 76 -71 115 -28 272 89 323 44
19 133 17 181 -5z"/>
<path d="M810 1080 l0 -50 35 0 35 0 0 -204 0 -205 -32 -3 c-32 -3 -33 -5 -36
-50 l-3 -48 120 0 121 0 0 50 0 50 -35 0 -35 0 0 205 0 205 36 0 35 0 -3 48
-3 47 -117 3 -118 3 0 -51z"/>
<path d="M2826 1114 c-4 -9 -4 -32 0 -50 5 -29 10 -34 35 -34 l29 0 0 -204 0
-205 -32 -3 c-32 -3 -33 -5 -33 -48 l0 -45 118 -3 117 -3 0 51 0 50 -34 0 -34
0 -1 145 c0 80 3 145 7 145 5 0 81 -88 170 -196 162 -194 163 -195 200 -192
l37 3 0 253 0 252 33 0 c32 0 32 0 32 50 l0 50 -114 0 c-113 0 -114 0 -118
-25 -3 -14 -3 -36 0 -50 3 -20 10 -25 33 -25 l29 0 0 -150 c0 -82 -2 -150 -4
-150 -2 0 -81 90 -176 200 l-172 200 -58 0 c-44 0 -59 -4 -64 -16z"/>
<path d="M486 940 c-9 -46 -89 -126 -150 -149 -40 -16 -45 -20 -25 -20 60 -2
163 -97 176 -163 6 -31 23 -38 23 -10 0 27 53 106 88 131 17 12 48 27 68 34
l37 13 -46 18 c-53 20 -119 87 -138 139 -16 45 -25 47 -33 7z"/>
<path d="M2180 292 c-17 -13 -23 -29 -22 -53 2 -64 77 -92 120 -46 28 30 28
68 -1 95 -28 27 -67 28 -97 4z"/>
<path d="M2512 287 c-30 -32 -28 -71 4 -96 52 -41 114 -14 116 48 2 64 -76 95
-120 48z"/>
</g>
</svg>
